<!DOCTYPE svg PUBLIC "-//W3C//DTD SVG 1.1//EN" "http://www.w3.org/Graphics/SVG/1.1/DTD/svg11.dtd">
<svg xmlns="http://www.w3.org/2000/svg" xmlns:xlink="http://www.w3.org/1999/xlink" version="1.1" width="16" height="16" overflow="auto" preserveAspectRatio="none" baseProfile="tiny" space="preserve">
  <path d="M0 160 L0 544 Q0 637 65.5 702.5 Q131 768 224 768 L252 768 L357 1187 Q380 1281 461 1344.5 Q542 1408 640 1408 L1344 1408 Q1442 1408 1523 1344.5 Q1604 1281 1627 1187 L1732 768 L1760 768 Q1853 768 1918.5 702.5 Q1984 637 1984 544 L1984 160 Q1984 146 1975 137 Q1966 128 1952 128 L1824 128 L1824 0 Q1824 -80 1768 -136 Q1712 -192 1632 -192 Q1552 -192 1496 -136 Q1440 -80 1440 0 L1440 128 L512 128 L512 0 Q512 -80 456 -136 Q400 -192 320 -192 Q240 -192 184 -136 Q128 -80 128 0 L128 128 L32 128 Q18 128 9 137 Q0 146 0 160 z M160 448 Q160 382 207 335 Q254 288 320 288 Q386 288 433 335 Q480 382 480 448 Q480 514 433 561 Q386 608 320 608 Q254 608 207 561 Q160 514 160 448 z M516 768 L1468 768 L1379 1125 Q1377 1133 1365 1142.5 Q1353 1152 1344 1152 L640 1152 Q631 1152 619 1142.5 Q607 1133 605 1125 z M1472 448 Q1472 382 1519 335 Q1566 288 1632 288 Q1698 288 1745 335 Q1792 382 1792 448 Q1792 514 1745 561 Q1698 608 1632 608 Q1566 608 1519 561 Q1472 514 1472 448 z" pathLength="0" fill="White" transform="translate(-0.8571424, -0.2857128) scale(0.008928572, -0.008928572) translate(0, -1536)" />
</svg>