<!DOCTYPE svg PUBLIC "-//W3C//DTD SVG 1.1//EN" "http://www.w3.org/Graphics/SVG/1.1/DTD/svg11.dtd">
<svg xmlns="http://www.w3.org/2000/svg" xmlns:xlink="http://www.w3.org/1999/xlink" version="1.1" width="16" height="16" overflow="auto" preserveAspectRatio="none" baseProfile="tiny" space="preserve">
  <path d="M0 128 Q190 289 287 525.5 Q384 762 384 1024 Q384 1189 480 1286 Q576 1383 744 1403 Q736 1421 736 1440 Q736 1480 764 1508 Q792 1536 832 1536 Q872 1536 900 1508 Q928 1480 928 1440 Q928 1421 920 1403 Q1088 1383 1184 1286 Q1280 1189 1280 1024 Q1280 762 1377 525.5 Q1474 289 1664 128 Q1664 76 1626 38 Q1588 0 1536 0 L1088 0 Q1088 -106 1013 -181 Q938 -256 832 -256 Q726 -256 651 -181 Q576 -106 576 0 L128 0 Q76 0 38 38 Q0 76 0 128 z M183 128 L1481 128 Q1317 309 1234.5 539.5 Q1152 770 1152 1024 Q1152 1280 832 1280 Q512 1280 512 1024 Q512 770 429.5 539.5 Q347 309 183 128 z M656 0 Q656 -73 707.5 -124.5 Q759 -176 832 -176 Q848 -176 848 -160 Q848 -144 832 -144 Q773 -144 730.5 -101.5 Q688 -59 688 0 Q688 16 672 16 Q656 16 656 0 z" pathLength="0" fill="White" transform="translate(0.5714283, 9.536743E-07) scale(0.008928572, -0.008928572) translate(0, -1536)" />
</svg>