<!DOCTYPE svg PUBLIC "-//W3C//DTD SVG 1.1//EN" "http://www.w3.org/Graphics/SVG/1.1/DTD/svg11.dtd">
<svg xmlns="http://www.w3.org/2000/svg" xmlns:xlink="http://www.w3.org/1999/xlink" version="1.1" width="16" height="16" overflow="auto" preserveAspectRatio="none" baseProfile="tiny" space="preserve">
  <path d="M555 15 Q631 -17 695 -17 Q826 -17 911 24 Q996 65 1033 137 Q1071 207 1071 318 Q1071 432 1030 498 Q972 592 889 624 Q809 656 642 656 Q568 656 541 646 L541 502 L540 329 L543 59 Q543 44 555 15 z M541 761 Q584 754 650 754 Q825 754 914 819 Q1003 884 1003 1043 Q1003 1155 918 1230 Q834 1305 663 1305 Q611 1305 533 1292 Q533 1248 535 1215 Q542 1093 541 936 L540 838 Q540 795 541 761 z M0 -128 L2 -34 Q47 -25 70 -22 Q147 -10 193 9 Q210 36 214 60 Q223 126 223 254 L221 751 Q216 1007 212 1155 Q211 1242 201 1264 Q200 1268 189 1276 Q171 1288 120 1291 Q90 1293 6 1304 L2 1387 L262 1393 L642 1406 L687 1407 Q692 1407 701 1407.5 Q710 1408 715 1408 Q716 1408 736.5 1407.5 Q757 1407 777 1407 L851 1407 Q939 1407 1042 1380 Q1085 1367 1138 1341 Q1195 1312 1240 1265 Q1284 1218 1305 1161 Q1326 1104 1326 1039 Q1326 969 1294 911 Q1262 853 1199 806 Q1173 786 1049 729 Q1226 688 1316 583 Q1408 477 1408 347 Q1408 271 1379 186 Q1358 124 1308 69 Q1242 -3 1168 -39 Q1095 -75 965 -99 Q883 -114 767 -110 L570 -106 Q486 -104 272 -117 Q239 -120 0 -128 z" pathLength="0" fill="White" transform="translate(1.714286, 1.311302E-06) scale(0.008928572, -0.008928572) translate(0, -1536)" />
</svg>