<!DOCTYPE svg PUBLIC "-//W3C//DTD SVG 1.1//EN" "http://www.w3.org/Graphics/SVG/1.1/DTD/svg11.dtd">
<svg xmlns="http://www.w3.org/2000/svg" xmlns:xlink="http://www.w3.org/1999/xlink" version="1.1" width="16" height="16" overflow="auto" preserveAspectRatio="none" baseProfile="tiny" space="preserve">
  <path d="M0 32 L0 416 Q0 509 65.5 574.5 Q131 640 224 640 L252 640 L357 1059 Q380 1153 461 1216.5 Q542 1280 640 1280 L768 1280 L768 1504 Q768 1518 777 1527 Q786 1536 800 1536 L1248 1536 Q1262 1536 1271 1527 Q1280 1518 1280 1504 L1280 1280 L1344 1280 Q1442 1280 1523 1216.5 Q1604 1153 1627 1059 L1732 640 L1760 640 Q1853 640 1918.5 574.5 Q1984 509 1984 416 L1984 32 Q1984 18 1975 9 Q1966 0 1952 0 L1824 0 L1824 -64 Q1824 -144 1768 -200 Q1712 -256 1632 -256 Q1552 -256 1496 -200 Q1440 -144 1440 -64 L1440 0 L512 0 L512 -64 Q512 -144 456 -200 Q400 -256 320 -256 Q240 -256 184 -200 Q128 -144 128 -64 L128 0 L32 0 Q18 0 9 9 Q0 18 0 32 z M160 320 Q160 254 207 207 Q254 160 320 160 Q386 160 433 207 Q480 254 480 320 Q480 386 433 433 Q386 480 320 480 Q254 480 207 433 Q160 386 160 320 z M516 640 L1468 640 L1379 997 Q1377 1005 1365 1014.5 Q1353 1024 1344 1024 L640 1024 Q631 1024 619 1014.5 Q607 1005 605 997 z M1472 320 Q1472 254 1519 207 Q1566 160 1632 160 Q1698 160 1745 207 Q1792 254 1792 320 Q1792 386 1745 433 Q1698 480 1632 480 Q1566 480 1519 433 Q1472 386 1472 320 z" pathLength="0" fill="White" transform="translate(-0.8571424, 9.536743E-07) scale(0.008928572, -0.008928572) translate(0, -1536)" />
</svg>