<!DOCTYPE svg PUBLIC "-//W3C//DTD SVG 1.1//EN" "http://www.w3.org/Graphics/SVG/1.1/DTD/svg11.dtd">
<svg xmlns="http://www.w3.org/2000/svg" xmlns:xlink="http://www.w3.org/1999/xlink" version="1.1" x="0" y="0" width="16" height="16" overflow="auto" preserveAspectRatio="xMidYMid" baseProfile="tiny" space="preserve">
  <path d="M322 689 L307 689 Q288 689 288 707 Q288 735 307 792 Q312 807 322 811.5 Q332 816 350 816 Q427 816 427 767 Q427 726 396.5 707.5 Q366 689 322 689 z M664 528 Q617 528 617 557 Q617 619 740 619 L743 616 Q738 528 664 528 z M1438 687 L1423 687 Q1404 687 1404 706 Q1404 734 1423 791 Q1428 806 1437.5 810 Q1447 814 1466 814 Q1543 814 1543 765 Q1543 724 1512.5 705.5 Q1482 687 1438 687 z M1780 527 Q1733 527 1733 557 Q1733 619 1856 619 L1859 616 Q1854 527 1780 527 z M373 894 L245 894 Q237 894 230.5 890 Q224 886 222 882.5 Q220 879 215 870 Q212 863 170 680 Q128 497 128 488 Q128 481 133.5 475.5 Q139 470 147 470 L209 470 Q234 470 241.5 504.5 L256.5 573.5 Q256.5 573.5 289 608 Q336 608 376.5 615.5 Q417 623 457 640 Q497 657 520.5 692.5 Q544 728 544 777 Q544 813 529.5 838 Q515 863 488.5 874.5 Q462 886 435 890 Q408 894 373 894 z M719 798 Q681 798 645 792 Q643 792 636.5 791 Q630 790 627.5 789.5 L620 788 Q620 788 612.5 786 Q605 784 606 783 Q607 782 599.5 779 Q592 776 594.5 774 Q597 772 590 767 Q583 762 586 758 Q577 729 577 719 Q577 709 586 709 Q591 709 607.5 714 Q624 719 627 720 Q657 728 685 728 Q759 728 759 692 Q759 681 749 678 Q741 676 731 675 Q721 674 709.5 673.5 Q698 673 692 672 Q654 668 627.5 662 Q601 656 571 642.5 Q541 629 525.5 603.5 Q510 578 510 541 Q510 503 536 481.5 Q562 460 600 460 Q624 460 645.5 466.5 Q667 473 678.5 479.5 Q690 486 717 503 Q714 496 714 488 Q714 480 719.5 474.5 Q725 469 732 469 L788 469 Q789 470 795 472.5 Q801 475 802.5 476 Q804 477 807.5 479.5 Q811 482 812.5 485 Q814 488 815 493 L860 687 Q864 700 864 717 Q864 798 719 798 z M1247 793 L1173 793 Q1151 793 1134 770 Q1129 763 1104.5 719 Q1080 675 1058 637.5 Q1036 600 1032 599 L1027 603 Q1027 680 1000 769 Q999 774 996.5 777.5 Q994 781 990.5 784 Q987 787 984 789 Q981 791 975.5 792 Q970 793 967 793.5 Q964 794 957.5 794.5 Q951 795 948.5 795 L938.5 795 L930 795 Q892 795 892 774 L893 769 Q898 716 918 618 Q938 520 943 475 Q945 459 945 451 Q945 432 914.5 389.5 Q884 347 884 331 Q884 318 924 318 Q985 318 1000 343 L1245 758 Q1255 778 1255 784 Q1255 793 1247 793 z M1489 892 L1360 892 Q1342 892 1331 869 Q1325 856 1284.5 677.5 Q1244 499 1244 487 Q1244 467 1287 467 L1294.5 467 L1303.5 467 L1312.5 467 Q1312.5 467 1322 468 Q1331.5 469 1330.5 470 Q1329.5 471 1339 473 Q1348.5 475 1345.5 477.5 Q1342.5 480 1351 483.5 Q1359.5 487 1354 492 L1375 583 Q1377 593 1385.5 600 Q1394 607 1405 607 Q1452 607 1492.5 614 Q1533 621 1573 638.5 Q1613 656 1636.5 691 Q1660 726 1660 775 Q1660 811 1645.5 836 Q1631 861 1604.5 872.5 Q1578 884 1551 888 Q1524 892 1489 892 z M1835 798 Q1809 798 1761 792 Q1723 786 1713 776 Q1706 768 1702 757 Q1694 733 1694 718 Q1694 708 1702 708 Q1703 708 1743 720 Q1773 728 1801 728 Q1875 728 1875 692 Q1875 680 1865 678 Q1861 677 1808 671 Q1770 667 1743.5 661 Q1717 655 1687 641.5 Q1657 628 1641.5 602.5 Q1626 577 1626 540 Q1626 503 1652 481.5 Q1678 460 1716 460 Q1740 460 1761 466 Q1782 472 1795 479 Q1808 486 1833 503 Q1830 488 1830 487 Q1830 482 1832 478.5 Q1834 475 1838.5 473 Q1843 471 1846.5 469.5 Q1850 468 1857 467.5 Q1864 467 1866.5 467 L1876 467 L1884 467 Q1926 467 1932 492 L1977 686 Q1980 701 1980 717 Q1980 798 1835 798 z M2157 889 L2102 889 Q2077 889 2069 849 Q2059 805 2032.5 682 Q2006 559 1990 492 L1990 487 Q1990 471 2006 469 L2007 469 L2064 469 Q2074 469 2082.5 475.5 Q2091 482 2093 492 L2176 866 L2175 866 L2176 871 Q2176 878 2170.5 883.5 Q2165 889 2157 889 z M2304 1280 L2304 0 Q2304 -52 2266 -90 Q2228 -128 2176 -128 L128 -128 Q76 -128 38 -90 Q0 -52 0 0 L0 1280 Q0 1332 38 1370 Q76 1408 128 1408 L2176 1408 Q2228 1408 2266 1370 Q2304 1332 2304 1280 z" pathLength="0" fill="White" transform="translate(-2.285714, 1.311302E-06) scale(0.008928572, -0.008928572) translate(0, -1536)" />
</svg>