<!DOCTYPE svg PUBLIC "-//W3C//DTD SVG 1.1//EN" "http://www.w3.org/Graphics/SVG/1.1/DTD/svg11.dtd">
<svg xmlns="http://www.w3.org/2000/svg" xmlns:xlink="http://www.w3.org/1999/xlink" version="1.1" width="16" height="16" overflow="auto" preserveAspectRatio="none" baseProfile="tiny" space="preserve">
  <path d="M742 -37 L90 614 Q53 651 53 704.5 Q53 758 90 795 L742 1446 Q779 1483 832.5 1483 Q886 1483 923 1446 L998 1371 Q1035 1334 1035 1280.5 Q1035 1227 998 1190 L512 704 L998 219 Q1035 181 1035 128 Q1035 75 998 38 L923 -37 Q886 -74 832.5 -74 Q779 -74 742 -37 z" pathLength="0" fill="White" transform="translate(3.142858, 0.5758938) scale(0.008928572, -0.008928572) translate(0, -1536)" />
</svg>