<!DOCTYPE svg PUBLIC "-//W3C//DTD SVG 1.1//EN" "http://www.w3.org/Graphics/SVG/1.1/DTD/svg11.dtd">
<svg xmlns="http://www.w3.org/2000/svg" xmlns:xlink="http://www.w3.org/1999/xlink" version="1.1" width="16" height="16" overflow="auto" preserveAspectRatio="none" baseProfile="tiny" space="preserve">
  <path d="M1611 320 Q1611 267 1574 230 L1499 155 Q1461 117 1408 117 Q1354 117 1318 155 L832 640 L346 155 Q310 117 256 117 Q202 117 166 155 L91 230 Q53 266 53 320 Q53 373 91 411 L742 1062 Q779 1099 832 1099 Q884 1099 923 1062 L1573 411 Q1611 373 1611 320 z" pathLength="0" fill="White" transform="translate(0.5714296, -0.2857132) scale(0.008928572, -0.008928572) translate(0, -1536)" />
</svg>