<!DOCTYPE svg PUBLIC "-//W3C//DTD SVG 1.1//EN" "http://www.w3.org/Graphics/SVG/1.1/DTD/svg11.dtd">
<svg xmlns="http://www.w3.org/2000/svg" xmlns:xlink="http://www.w3.org/1999/xlink" version="1.1" width="16" height="16" overflow="auto" preserveAspectRatio="none" baseProfile="tiny" space="preserve">
  <path d="M1611 832 Q1611 779 1574 742 L923 91 Q885 53 832 53 Q778 53 742 91 L91 742 Q53 778 53 832 Q53 885 91 923 L165 998 Q204 1035 256 1035 Q309 1035 346 998 L832 512 L1318 998 Q1355 1035 1408 1035 Q1460 1035 1499 998 L1574 923 Q1611 884 1611 832 z" pathLength="0" fill="White" transform="translate(0.5714296, -0.8571415) scale(0.008928572, -0.008928572) translate(0, -1536)" />
</svg>