<!DOCTYPE svg PUBLIC "-//W3C//DTD SVG 1.1//EN" "http://www.w3.org/Graphics/SVG/1.1/DTD/svg11.dtd">
<svg xmlns="http://www.w3.org/2000/svg" xmlns:xlink="http://www.w3.org/1999/xlink" version="1.1" width="16" height="16" overflow="auto" preserveAspectRatio="none" baseProfile="tiny" space="preserve">
  <path d="M1099 704 Q1099 652 1062 613 L410 -38 Q373 -75 320 -75 Q267 -75 230 -38 L154 37 Q117 76 117 128 Q117 181 154 218 L640 704 L154 1189 Q117 1228 117 1280 Q117 1333 154 1370 L230 1445 Q266 1483 320 1483 Q374 1483 410 1445 L1062 794 Q1099 757 1099 704 z" pathLength="0" fill="White" transform="translate(2.571429, 0.5714296) scale(0.008928572, -0.008928572) translate(0, -1536)" />
</svg>