<!DOCTYPE svg PUBLIC "-//W3C//DTD SVG 1.1//EN" "http://www.w3.org/Graphics/SVG/1.1/DTD/svg11.dtd">
<svg xmlns="http://www.w3.org/2000/svg" xmlns:xlink="http://www.w3.org/1999/xlink" version="1.1" width="16" height="16" overflow="auto" preserveAspectRatio="none" baseProfile="tiny" space="preserve">
  <path d="M1397 1408 Q1455 1408 1495.5 1367.5 Q1536 1327 1536 1269 L1536 11 Q1536 -47 1495.5 -87.5 Q1455 -128 1397 -128 L139 -128 Q81 -128 40.5 -87.5 Q0 -47 0 11 L0 1269 Q0 1327 40.5 1367.5 Q81 1408 139 1408 L1397 1408 z M1465 11 L1465 1269 Q1465 1297 1445 1317 Q1425 1337 1397 1337 L139 1337 Q111 1337 91 1317 Q71 1297 71 1269 L71 11 Q71 -17 91 -37 Q111 -57 139 -57 L1397 -57 Q1425 -57 1445 -37 Q1465 -17 1465 11 z M694 749 L882 362 L1415 507 L1415 11 Q1415 4 1409.5 -1.5 Q1404 -7 1397 -7 L139 -7 Q132 -7 126.5 -1.5 Q121 4 121 11 L121 152 L832 347 L620 786 Q624 787 632 788.5 Q640 790 644 790 Q814 822 947.5 811.5 Q1081 801 1168.5 765.5 Q1256 730 1312 671 Q1339 643 1287 629 Q1223 613 1031 567 L934 765 Q823 772 694 749 z M1397 1287 Q1404 1287 1409.5 1281.5 Q1415 1276 1415 1269 L1415 841 Q1330 871 1227 893 Q933 957 582 905 L564 902 L499 1036 L266 1036 L351 846 Q219 795 121 709 L121 1269 Q121 1276 126.5 1281.5 Q132 1287 139 1287 L1397 1287 z M286 387 Q272 384 260 391.5 Q248 399 246 413 Q222 616 412 718 L541 448 z" pathLength="0" fill="White" transform="translate(1.142857, 1.311302E-06) scale(0.008928572, -0.008928572) translate(0, -1536)" />
</svg>