<!DOCTYPE svg PUBLIC "-//W3C//DTD SVG 1.1//EN" "http://www.w3.org/Graphics/SVG/1.1/DTD/svg11.dtd">
<svg xmlns="http://www.w3.org/2000/svg" xmlns:xlink="http://www.w3.org/1999/xlink" version="1.1" width="16" height="16" overflow="auto" preserveAspectRatio="none" baseProfile="tiny" space="preserve">
  <path d="M64 558 L402 829 L896 524 L554 239 z M64 1099 L554 1418 L896 1133 L402 829 z M407 166 L407 274 L554 178 L896 462 L896 464 L897 463 L898 464 L898 462 L1241 178 L1388 274 L1388 166 L898 -127 L898 -128 L897 -127 L896 -128 L896 -127 z M896 524 L1390 829 L1728 558 L1239 239 z M896 1133 L1239 1418 L1728 1099 L1390 829 z" pathLength="0" fill="White" transform="translate(6.556511E-07, 0.04464412) scale(0.008928572, -0.008928572) translate(0, -1536)" />
</svg>