<!DOCTYPE svg PUBLIC "-//W3C//DTD SVG 1.1//EN" "http://www.w3.org/Graphics/SVG/1.1/DTD/svg11.dtd">
<svg xmlns="http://www.w3.org/2000/svg" xmlns:xlink="http://www.w3.org/1999/xlink" version="1.1" width="16" height="16" overflow="auto" preserveAspectRatio="none" baseProfile="tiny" space="preserve">
  <path d="M1536 160 Q1536 41 1451.5 -43.5 Q1367 -128 1248 -128 L1056 -128 L1056 480 L1259 480 L1289 704 L1056 704 L1056 847 Q1056 901 1084 930 Q1112 959 1180 959 L1312 960 L1312 1167 Q1216 1176 1132 1176 Q996 1176 914 1095.5 Q832 1015 832 870 L832 704 L608 704 L608 480 L832 480 L832 -128 L288 -128 Q169 -128 84.5 -43.5 Q0 41 0 160 L0 1120 Q0 1239 84.5 1323.5 Q169 1408 288 1408 L1248 1408 Q1367 1408 1451.5 1323.5 Q1536 1239 1536 1120 L1536 160 z" pathLength="0" fill="White" transform="translate(1.142857, 1.311302E-06) scale(0.008928572, -0.008928572) translate(0, -1536)" />
</svg>