<!DOCTYPE svg PUBLIC "-//W3C//DTD SVG 1.1//EN" "http://www.w3.org/Graphics/SVG/1.1/DTD/svg11.dtd">
<svg xmlns="http://www.w3.org/2000/svg" xmlns:xlink="http://www.w3.org/1999/xlink" version="1.1" width="16" height="16" overflow="auto" preserveAspectRatio="none" baseProfile="tiny" space="preserve">
  <path d="M511 980 L768 980 L738 696 L511 696 L511 -128 L170 -128 L170 696 L0 696 L0 980 L170 980 L170 1151 Q170 1333 256 1426.5 Q342 1520 539 1520 L766 1520 L766 1236 L624 1236 Q585 1236 561.5 1229.5 Q538 1223 527.5 1206 Q517 1189 514 1171.5 Q511 1154 511 1122 L511 980 z" pathLength="0" fill="White" transform="translate(4.571428, 0.5000014) scale(0.008928572, -0.008928572) translate(0, -1536)" />
</svg>