<!DOCTYPE svg PUBLIC "-//W3C//DTD SVG 1.1//EN" "http://www.w3.org/Graphics/SVG/1.1/DTD/svg11.dtd">
<svg xmlns="http://www.w3.org/2000/svg" xmlns:xlink="http://www.w3.org/1999/xlink" version="1.1" width="16" height="16" overflow="auto" preserveAspectRatio="none" baseProfile="tiny" space="preserve">
  <path d="M1024 352 L1024 288 Q1024 274 1015 265 Q1006 256 992 256 L288 256 Q274 256 265 265 Q256 274 256 288 L256 352 Q256 366 265 375 Q274 384 288 384 L992 384 Q1006 384 1015 375 Q1024 366 1024 352 z M1024 608 L1024 544 Q1024 530 1015 521 Q1006 512 992 512 L288 512 Q274 512 265 521 Q256 530 256 544 L256 608 Q256 622 265 631 Q274 640 288 640 L992 640 Q1006 640 1015 631 Q1024 622 1024 608 z M128 0 L1152 0 L1152 768 L736 768 Q696 768 668 796 Q640 824 640 864 L640 1280 L128 1280 L128 0 z M768 896 L1144 896 Q1134 925 1122 937 L809 1250 Q797 1262 768 1272 L768 896 z M1280 864 L1280 -32 Q1280 -72 1252 -100 Q1224 -128 1184 -128 L96 -128 Q56 -128 28 -100 Q0 -72 0 -32 L0 1312 Q0 1352 28 1380 Q56 1408 96 1408 L736 1408 Q776 1408 824 1388 Q872 1368 900 1340 L1212 1028 Q1240 1000 1260 952 Q1280 904 1280 864 z" pathLength="0" fill="White" transform="translate(2.285714, 1.311302E-06) scale(0.008928572, -0.008928572) translate(0, -1536)" />
</svg>