<!DOCTYPE svg PUBLIC "-//W3C//DTD SVG 1.1//EN" "http://www.w3.org/Graphics/SVG/1.1/DTD/svg11.dtd">
<svg xmlns="http://www.w3.org/2000/svg" xmlns:xlink="http://www.w3.org/1999/xlink" version="1.1" width="16" height="16" overflow="auto" preserveAspectRatio="none" baseProfile="tiny" space="preserve">
  <path d="M1280 768 L1280 -32 Q1280 -72 1252 -100 Q1224 -128 1184 -128 L96 -128 Q56 -128 28 -100 Q0 -72 0 -32 L0 1312 Q0 1352 28 1380 Q56 1408 96 1408 L640 1408 L640 864 Q640 824 668 796 Q696 768 736 768 L1280 768 z M1277 896 L768 896 L768 1405 Q850 1390 900 1340 L1212 1028 Q1262 978 1277 896 z" pathLength="0" fill="White" transform="translate(2.285714, 1.311302E-06) scale(0.008928572, -0.008928572) translate(0, -1536)" />
</svg>