<!DOCTYPE svg PUBLIC "-//W3C//DTD SVG 1.1//EN" "http://www.w3.org/Graphics/SVG/1.1/DTD/svg11.dtd">
<svg xmlns="http://www.w3.org/2000/svg" xmlns:xlink="http://www.w3.org/1999/xlink" version="1.1" width="16" height="16" overflow="auto" preserveAspectRatio="none" baseProfile="tiny" space="preserve">
  <path d="M1024 160 L1024 224 Q1024 238 1015 247 Q1006 256 992 256 L288 256 Q274 256 265 247 Q256 238 256 224 L256 160 Q256 146 265 137 Q274 128 288 128 L992 128 Q1006 128 1015 137 Q1024 146 1024 160 z M1024 416 L1024 480 Q1024 494 1015 503 Q1006 512 992 512 L288 512 Q274 512 265 503 Q256 494 256 480 L256 416 Q256 402 265 393 Q274 384 288 384 L992 384 Q1006 384 1015 393 Q1024 402 1024 416 z M1280 768 L1280 -32 Q1280 -72 1252 -100 Q1224 -128 1184 -128 L96 -128 Q56 -128 28 -100 Q0 -72 0 -32 L0 1312 Q0 1352 28 1380 Q56 1408 96 1408 L640 1408 L640 864 Q640 824 668 796 Q696 768 736 768 L1280 768 z M1277 896 L768 896 L768 1405 Q850 1390 900 1340 L1212 1028 Q1262 978 1277 896 z" pathLength="0" fill="White" transform="translate(2.285714, 1.311302E-06) scale(0.008928572, -0.008928572) translate(0, -1536)" />
</svg>