<!DOCTYPE svg PUBLIC "-//W3C//DTD SVG 1.1//EN" "http://www.w3.org/Graphics/SVG/1.1/DTD/svg11.dtd">
<svg xmlns="http://www.w3.org/2000/svg" xmlns:xlink="http://www.w3.org/1999/xlink" version="1.1" width="16" height="16" overflow="auto" preserveAspectRatio="none" baseProfile="tiny" space="preserve">
  <path d="M725 977 L555 527 Q628 526 708.5 525 Q789 524 827.5 523.5 Q866 523 880 523 L909 525 Q877 620 817 766 Q764 898 725 977 z M21 -128 L0 -128 L2 -49 Q24 -42 82 -31 Q171 -15 192 0 Q212 16 240 68 L477 684 L757 1408 L832 1408 L885 1408 L896 1387 L1101 907 Q1204 665 1225 610 Q1264 508 1321 375 Q1347 317 1386 211 Q1410 144 1451 62 Q1473 13 1486 5 Q1508 -14 1555 -18 Q1602 -24 1658 -45 Q1664 -84 1664 -102 Q1664 -116 1663 -128 Q1583 -128 1471 -120 Q1378 -112 1282 -112 Q1203 -112 1147 -114 L947 -125 L889 -127 Q889 -82 893 -49 L1024 -21 Q1080 -8 1092 2 Q1104 14 1104 29 Q1104 44 1098 61 L1051 175 L959 403 L509 405 Q480 340 405 131 Q382 67 382 47 Q382 16 399 4 Q425 -17 502 -28 Q505 -28 515.5 -30 Q526 -32 545.5 -35 Q565 -38 586 -41 Q587 -69 587 -99 Q587 -116 585 -126 Q519 -126 236 -106 L188 -114 Q107 -128 21 -128 z" pathLength="0" fill="White" transform="translate(0.5714283, 1.311302E-06) scale(0.008928572, -0.008928572) translate(0, -1536)" />
</svg>