<!DOCTYPE svg PUBLIC "-//W3C//DTD SVG 1.1//EN" "http://www.w3.org/Graphics/SVG/1.1/DTD/svg11.dtd">
<svg xmlns="http://www.w3.org/2000/svg" xmlns:xlink="http://www.w3.org/1999/xlink" version="1.1" width="16" height="16" overflow="auto" preserveAspectRatio="none" baseProfile="tiny" space="preserve">
  <path d="M0 640 Q0 715 53 768 L640 1355 Q693 1408 768 1408 Q843 1408 896 1355 L1161 1090 L763 691 L575 879 Q533 921 476 921 Q417 921 376 880 L256 759 Q214 719 214 660 Q214 602 256 560 L662 152 Q692 124 729 115 L735 111 L763 111 Q823 111 862 152 L1481 771 L1483 768 Q1536 715 1536 640 Q1536 565 1483 512 L896 -75 Q844 -128 768.5 -128 Q693 -128 640 -75 L53 512 Q0 565 0 640 z M302 660 Q302 681 316 695 L437 815 Q450 830 472 830 Q494 830 508 815 L760 563 L1334 1138 Q1349 1153 1370 1153 Q1391 1153 1406 1138 L1526 1018 Q1540 1003 1540 982 Q1540 961 1526 946 L796 216 Q779 201 759 201 Q755 201 753 202 Q735 204 723 216 L316 624 Q302 639 302 660 z" pathLength="0" fill="White" transform="translate(1.125, 1.311302E-06) scale(0.008928572, -0.008928572) translate(0, -1536)" />
</svg>