<!DOCTYPE svg PUBLIC "-//W3C//DTD SVG 1.1//EN" "http://www.w3.org/Graphics/SVG/1.1/DTD/svg11.dtd">
<svg xmlns="http://www.w3.org/2000/svg" xmlns:xlink="http://www.w3.org/1999/xlink" version="1.1" width="16" height="16" overflow="auto" preserveAspectRatio="none" baseProfile="tiny" space="preserve">
  <path d="M876 71 Q876 92 871.5 111.5 Q867 131 862 147.5 Q857 164 844.5 182 Q832 200 823.5 212.5 Q815 225 797 242 Q779 259 769.5 267.5 Q760 276 737.5 293 Q715 310 706.5 316 Q698 322 673.5 339 Q649 356 643 360 Q626 362 593 362 Q539 362 487 355 Q435 348 379 330 Q323 312 281 284 Q239 256 212 209 Q185 162 185 102 Q185 34 220.5 -19.5 Q256 -73 313.5 -103.5 Q371 -134 434 -149 Q497 -164 561 -164 Q620 -164 673.5 -151.5 Q727 -139 774 -112.5 Q821 -86 848.5 -39 Q876 8 876 71 z M756 933 Q756 993 739.5 1060.5 Q723 1128 692.5 1191 Q662 1254 608.5 1295 Q555 1336 489 1336 Q396 1336 345 1267 Q294 1198 294 1102 Q294 1055 305.5 1003 Q317 951 341 899 Q365 847 397 805.5 Q429 764 475 738 Q521 712 572 712 Q669 712 712.5 772.5 Q756 833 756 933 z M625 1408 L1062 1408 L927 1329 L792 1329 Q863 1284 902 1203 Q941 1122 941 1034 Q941 960 918 902.5 Q895 845 862 810 Q829 775 796 745.5 Q763 716 740 684.5 Q717 653 717 617 Q717 591 733.5 566 Q750 541 776.5 518 Q803 495 835 470 Q867 445 899 414.5 Q931 384 957.5 348.5 Q984 313 1000.5 263.5 Q1017 214 1017 157 Q1017 -3 877 -125 Q725 -256 457 -256 Q398 -256 337.5 -246 Q277 -236 215.5 -212.5 Q154 -189 107 -154.5 Q60 -120 30 -65.5 Q0 -11 0 56 Q0 117 37 191 Q69 255 133 301.5 Q197 348 278 372.5 Q359 397 433 408.5 Q507 420 583 422 Q519 505 519 571 Q519 583 521 594.5 Q523 606 526 614 Q529 622 534 635.5 Q539 649 541 657 Q501 652 471 652 Q322 652 215.5 750 Q109 848 109 996 Q109 1136 204 1246.5 Q299 1357 438 1388 Q532 1408 625 1408 z M1664 1152 L1664 1024 L1408 1024 L1408 768 L1280 768 L1280 1024 L1024 1024 L1024 1152 L1280 1152 L1280 1408 L1408 1408 L1408 1152 L1664 1152 z" pathLength="0" fill="White" transform="translate(0.5714283, -0.5714275) scale(0.008928572, -0.008928572) translate(0, -1536)" />
</svg>