<!DOCTYPE svg PUBLIC "-//W3C//DTD SVG 1.1//EN" "http://www.w3.org/Graphics/SVG/1.1/DTD/svg11.dtd">
<svg xmlns="http://www.w3.org/2000/svg" xmlns:xlink="http://www.w3.org/1999/xlink" version="1.1" width="16" height="16" overflow="auto" preserveAspectRatio="none" baseProfile="tiny" space="preserve">
  <path d="M678 -57 Q678 -95 668 -128 L288 -128 Q193 -128 116.5 -71.5 Q40 -15 13 76 Q37 121 82 153.5 Q127 186 182 203 Q237 220 289 227 Q341 234 396 234 Q428 234 445 232 Q451 228 475.5 211 Q500 194 508.5 188 Q517 182 539.5 165 Q562 148 571.5 139.5 Q581 131 599 114 Q617 97 625.5 84.5 Q634 72 646.5 54 Q659 36 664 19.5 Q669 3 673.5 -16.5 Q678 -36 678 -57 z M385 294 Q151 287 0 209 L0 642 Q103 524 273 524 Q305 524 343 529 Q322 468 322 443 Q322 376 385 294 z M558 805 Q558 705 514.5 644.5 Q471 584 374 584 Q323 584 277 610 Q231 636 199 677.5 Q167 719 143 771 Q119 823 107.5 875 Q96 927 96 974 Q96 1070 147.5 1139 Q199 1208 292 1208 Q358 1208 411 1167 Q464 1126 495 1063 Q526 1000 542 933 Q558 866 558 805 z M1536 896 L1536 160 Q1536 41 1451.5 -43.5 Q1367 -128 1248 -128 L780 -128 Q819 -55 819 29 Q819 95 797 151.5 Q775 208 741.5 244.5 Q708 281 669.5 315.5 Q631 350 597.5 375 Q564 400 542 429.5 Q520 459 520 489 Q520 525 543 557 Q566 589 599 618.5 Q632 648 664.5 683 Q697 718 720 776 Q743 834 743 907 Q743 980 716.5 1052.5 Q690 1125 641 1171 Q635 1177 627 1182 Q619 1187 614.5 1189.5 Q610 1192 604.5 1199 Q599 1206 594 1216 L729 1216 L864 1280 L427 1280 Q289 1280 182.5 1241.5 Q76 1203 0 1108 Q0 1234 81 1321 Q162 1408 288 1408 L1248 1408 Q1367 1408 1451.5 1323.5 Q1536 1239 1536 1120 L1536 1024 L1280 1024 L1280 1280 L1152 1280 L1152 1024 L896 1024 L896 896 L1152 896 L1152 640 L1280 640 L1280 896 L1536 896 z" pathLength="0" fill="White" transform="translate(1.142857, 1.311302E-06) scale(0.008928572, -0.008928572) translate(0, -1536)" />
</svg>