<!DOCTYPE svg PUBLIC "-//W3C//DTD SVG 1.1//EN" "http://www.w3.org/Graphics/SVG/1.1/DTD/svg11.dtd">
<svg xmlns="http://www.w3.org/2000/svg" xmlns:xlink="http://www.w3.org/1999/xlink" version="1.1" width="16" height="16" overflow="auto" preserveAspectRatio="none" baseProfile="tiny" space="preserve">
  <path d="M0 -126 L17 -41 Q21 -40 94 -21 Q170 -2 210 18 Q239 55 251 119 L278 258 L334 526 L346 590 Q354 634 363 674.5 Q372 715 379 741.5 Q386 768 391.5 788 Q397 808 400.5 818.5 Q404 829 404 830 L433 987 L449 1050 L471 1185 L479 1235 L479 1273 Q438 1295 335 1301 Q307 1303 297 1305 L316 1408 L633 1394 Q672 1392 706 1392 Q772 1392 920 1401 Q953 1403 988 1405.5 Q1023 1408 1024 1408 Q1022 1389 1018 1370 Q1011 1341 1005 1319 Q950 1300 896 1288 Q832 1272 795 1257 Q783 1226 771 1169 Q762 1125 758 1087 Q714 888 692 781 L631 470 L593 312 L550 77 L538 32 Q536 25 539 5 Q603 -10 658 -16 Q694 -21 724 -26 Q723 -55 717 -84 Q710 -115 708 -125 Q690 -125 685 -126 Q661 -128 643 -128 Q634 -128 615 -125 Q596 -121 470 -108 L272 -106 Q231 -105 98 -117 Q24 -124 0 -126 z" pathLength="0" fill="White" transform="translate(3.428571, 1.311302E-06) scale(0.008928572, -0.008928572) translate(0, -1536)" />
</svg>