<!DOCTYPE svg PUBLIC "-//W3C//DTD SVG 1.1//EN" "http://www.w3.org/Graphics/SVG/1.1/DTD/svg11.dtd">
<svg xmlns="http://www.w3.org/2000/svg" xmlns:xlink="http://www.w3.org/1999/xlink" version="1.1" x="0" y="0" width="16" height="16" overflow="auto" preserveAspectRatio="xMidYMid" baseProfile="tiny" space="preserve">
  <path d="M1280 1504 Q1280 1518 1289 1527 Q1298 1536 1312 1536 L1728 1536 Q1754 1536 1773 1517 Q1792 1498 1792 1472 L1792 1056 Q1792 1042 1783 1033 Q1774 1024 1760 1024 L1696 1024 Q1682 1024 1673 1033 Q1664 1042 1664 1056 L1664 1318 L1245 898 Q1332 794 1374.5 661.5 Q1417 529 1405 385 Q1383 135 1204.5 -46 Q1026 -227 776 -252 Q613 -269 462 -212.5 Q311 -156 205.5 -50.5 Q100 55 43.5 206 Q-13 357 4 520 Q29 770 210 948.5 Q391 1127 641 1149 Q785 1161 917.5 1118.5 Q1050 1076 1154 989 L1573 1408 L1312 1408 Q1298 1408 1289 1417 Q1280 1426 1280 1440 L1280 1504 z M704 -128 Q821 -128 927.5 -82.5 Q1034 -37 1111.5 40.5 Q1189 118 1234.5 224.5 Q1280 331 1280 448 Q1280 565 1234.5 671.5 Q1189 778 1111.5 855.5 Q1034 933 927.5 978.5 Q821 1024 704 1024 Q587 1024 480.5 978.5 Q374 933 296.5 855.5 Q219 778 173.5 671.5 Q128 565 128 448 Q128 331 173.5 224.5 Q219 118 296.5 40.5 Q374 -37 480.5 -82.5 Q587 -128 704 -128 z" pathLength="0" fill="White" transform="translate(0.03273942, -0.0327363) scale(0.008928572, -0.008928572) translate(0, -1536)" />
</svg>