<!DOCTYPE svg PUBLIC "-//W3C//DTD SVG 1.1//EN" "http://www.w3.org/Graphics/SVG/1.1/DTD/svg11.dtd">
<svg xmlns="http://www.w3.org/2000/svg" xmlns:xlink="http://www.w3.org/1999/xlink" version="1.1" x="0" y="0" width="16" height="16" overflow="auto" preserveAspectRatio="xMidYMid" baseProfile="tiny" space="preserve">
  <path d="M2029 685 Q2048 666 2048 640 Q2048 614 2029 595 L1735 301 Q1726 291 1712.5 291 Q1699 291 1690 301 L1645 346 Q1635 355 1635 368.5 Q1635 382 1645 391 L1830 576 L1536 576 L1536 352 Q1536 338 1527 329 Q1518 320 1504 320 L1440 320 Q1426 320 1417 329 Q1408 338 1408 352 L1408 576 L1277 576 Q1265 457 1210 350 Q1155 243 1071 166.5 Q987 90 874.5 45 Q762 0 640 0 Q460 0 309.5 91 Q159 182 75 338 Q-9 494 1 675 Q9 837 95 975 Q181 1113 321.5 1194.5 Q462 1276 624 1280 Q790 1284 934.5 1208.5 Q1079 1133 1170 1000 Q1261 867 1277 704 L1408 704 L1408 928 Q1408 942 1417 951 Q1426 960 1440 960 L1504 960 Q1518 960 1527 951 Q1536 942 1536 928 L1536 704 L1830 704 L1645 889 Q1635 898 1635 911.5 Q1635 925 1645 934 L1690 979 Q1699 989 1712.5 989 Q1726 989 1735 979 z M640 128 Q744 128 838.5 168.5 Q933 209 1002 278 Q1071 347 1111.5 441.5 Q1152 536 1152 640 Q1152 744 1111.5 838.5 Q1071 933 1002 1002 Q933 1071 838.5 1111.5 Q744 1152 640 1152 Q536 1152 441.5 1111.5 Q347 1071 278 1002 Q209 933 168.5 838.5 Q128 744 128 640 Q128 536 168.5 441.5 Q209 347 278 278 Q347 209 441.5 168.5 Q536 128 640 128 z" pathLength="0" fill="White" transform="translate(-1.117558, 0.01190472) scale(0.008928572, -0.008928572) translate(0, -1536)" />
</svg>