<!DOCTYPE svg PUBLIC "-//W3C//DTD SVG 1.1//EN" "http://www.w3.org/Graphics/SVG/1.1/DTD/svg11.dtd">
<svg xmlns="http://www.w3.org/2000/svg" xmlns:xlink="http://www.w3.org/1999/xlink" version="1.1" x="0" y="0" width="16" height="16" overflow="auto" preserveAspectRatio="xMidYMid" baseProfile="tiny" space="preserve">
  <path d="M1112 1090 Q1112 1249 875 1249 L805 1249 Q773 1249 745.5 1227.5 Q718 1206 711 1175 L648 899 Q646 894 646 883 Q646 859 663 843.5 Q680 828 704 828 L757 828 Q826 828 885.5 841 Q945 854 998 882 Q1051 910 1081.5 963.5 Q1112 1017 1112 1090 z M1716 938 Q1716 673 1496 510 Q1277 349 884 349 L823 349 Q791 349 764 327.5 Q737 306 730 275 L657 -41 Q649 -77 616.5 -102.5 Q584 -128 547 -128 L334 -128 Q303 -128 281 -108 Q259 -88 259 -57 Q259 -47 272 8 L423 8 Q457 8 487 31.5 Q517 55 525 88 L598 404 Q606 437 635.5 461 Q665 485 699 485 L760 485 Q1150 485 1367 645 Q1584 805 1584 1066 Q1584 1195 1533 1273 Q1716 1181 1716 938 z M1533 1123 Q1533 859 1312 695 Q1094 534 700 534 L640 534 Q608 534 580.5 512 Q553 490 546 459 L473 144 Q465 108 433 82.5 Q401 57 364 57 L150 57 Q119 57 97.5 76.5 Q76 96 76 128 Q76 136 78 148 L378 1449 Q386 1485 418.5 1510.5 Q451 1536 488 1536 L932 1536 Q1000 1536 1057 1532 Q1114 1528 1177.5 1517 Q1241 1506 1291 1487 Q1341 1468 1387.5 1436.5 Q1434 1405 1465 1362.5 Q1496 1320 1514.5 1259 Q1533 1198 1533 1123 z" pathLength="0" fill="White" transform="translate(2.980232E-07, 0.5714297) scale(0.008928572, -0.008928572) translate(0, -1536)" />
</svg>