<!DOCTYPE svg PUBLIC "-//W3C//DTD SVG 1.1//EN" "http://www.w3.org/Graphics/SVG/1.1/DTD/svg11.dtd">
<svg xmlns="http://www.w3.org/2000/svg" xmlns:xlink="http://www.w3.org/1999/xlink" version="1.1" x="0" y="0" width="16" height="16" overflow="auto" preserveAspectRatio="xMidYMid" baseProfile="tiny" space="preserve">
  <path d="M950 393 Q957 400 967.5 400 Q978 400 985 393 Q992 386 992 375 Q992 364 985 357 Q920 293 777 293 L776 293 L775 293 Q632 293 568 357 Q560 364 560 375 Q560 386 568 393 Q575 400 585.5 400 Q596 400 603 393 Q652 342 775 342 L776 342 L777 342 Q899 342 950 393 z M671 613 Q671 576 645 549 Q619 522 582 522 Q545 522 519 549 Q493 576 493 613 Q493 650 519 676 Q545 702 582 702 Q619 702 645 676 Q671 650 671 613 z M1214 1049 Q1185 1049 1164 1070 Q1143 1091 1143 1120 Q1143 1150 1164 1171 Q1185 1192 1214 1192 Q1244 1192 1265 1171 Q1286 1150 1286 1120 Q1286 1091 1265 1070 Q1244 1049 1214 1049 z M1216 1408 Q1348 1408 1442 1314 Q1536 1220 1536 1087 L1536 193 Q1536 60 1442 -34 Q1348 -128 1216 -128 L320 -128 Q188 -128 94 -34 Q0 60 0 193 L0 1087 Q0 1220 94 1314 Q188 1408 320 1408 L1216 1408 z M1321 596 Q1356 610 1378 641.5 Q1400 673 1400 712 Q1400 763 1364 799.5 Q1328 836 1277 836 Q1217 836 1179 788 Q1028 895 804 903 L887 1168 L1093 1119 Q1094 1069 1129.5 1034 Q1165 999 1214 999 Q1264 999 1300 1034.5 Q1336 1070 1336 1120 Q1336 1170 1300 1206 Q1264 1242 1214 1242 Q1178 1242 1148 1221.5 Q1118 1201 1103 1168 L876 1222 Q867 1224 858.5 1219.5 Q850 1215 847 1205 L752 903 Q528 899 371 790 Q335 833 278 833 Q227 833 191 796.5 Q155 760 155 709 Q155 672 174.5 641.5 Q194 611 227 596 Q220 571 220 542 Q220 444 294 360.5 Q368 277 495.5 228.5 Q623 180 774 180 Q924 180 1051.5 228.5 Q1179 277 1253 360.5 Q1327 444 1327 542 Q1327 569 1321 596 z M971 702 Q1008 702 1034 676 Q1060 650 1060 613 Q1060 576 1034 549 Q1008 522 971 522 Q934 522 908 549 Q882 576 882 613 Q882 650 908 676 Q934 702 971 702 z" pathLength="0" fill="White" transform="translate(1.142857, 1.311302E-06) scale(0.008928572, -0.008928572) translate(0, -1536)" />
</svg>