<!DOCTYPE svg PUBLIC "-//W3C//DTD SVG 1.1//EN" "http://www.w3.org/Graphics/SVG/1.1/DTD/svg11.dtd">
<svg xmlns="http://www.w3.org/2000/svg" xmlns:xlink="http://www.w3.org/1999/xlink" version="1.1" x="0" y="0" width="16" height="16" overflow="auto" preserveAspectRatio="xMidYMid" baseProfile="tiny" space="preserve">
  <path d="M1509 107 Q1509 93 1497 78 Q1445 19 1349.5 -5 Q1254 -29 1153 -29 Q901 -29 807 78 Q795 93 795 107 Q795 124 807 136.5 Q819 149 836 149 Q851 149 866 137 Q924 88 991.5 71 Q1059 54 1151 54 Q1243 54 1311 71 Q1379 88 1438 137 Q1453 149 1468 149 Q1485 149 1497 136.5 Q1509 124 1509 107 z M978 498 Q978 437 935 394 Q892 351 831 351 Q771 351 726.5 394.5 Q682 438 682 498 Q682 559 726 603 Q770 647 831 647 Q892 647 935 603 Q978 559 978 498 z M1622 498 Q1622 437 1579 394 Q1536 351 1475 351 Q1415 351 1370.5 394.5 Q1326 438 1326 498 Q1326 559 1370 603 Q1414 647 1475 647 Q1536 647 1579 603 Q1622 559 1622 498 z M415 793 Q376 820 327 820 Q261 820 214 773 Q167 726 167 660 Q167 588 221 539 Q274 680 415 793 z M2020 382 Q2020 604 1771 769 Q1643 854 1479.5 895.5 Q1316 937 1148 937 Q980 937 816.5 895.5 Q653 854 524 769 Q275 604 275 382 Q275 160 524 -5 Q653 -90 816.5 -131.5 Q980 -173 1148 -173 Q1316 -173 1479.5 -131.5 Q1643 -90 1771 -5 Q2020 160 2020 382 z M2137 660 Q2137 726 2090 773 Q2043 820 1977 820 Q1927 820 1884 790 Q2024 676 2076 534 Q2137 582 2137 660 z M1993 1335 Q1993 1384 1958.5 1418.5 Q1924 1453 1876 1453 Q1827 1453 1792.5 1418.5 Q1758 1384 1758 1335 Q1758 1287 1792.5 1252.5 Q1827 1218 1876 1218 Q1924 1218 1958.5 1252.5 Q1993 1287 1993 1335 z M2220 660 Q2220 595 2187 538 Q2154 481 2098 448 Q2103 413 2103 382 Q2103 243 2024 126.5 Q1945 10 1816 -75 Q1676 -167 1502.5 -211.5 Q1329 -256 1148 -256 Q967 -256 793 -211.5 Q619 -167 479 -75 Q350 10 271 126.5 Q192 243 192 382 Q192 418 198 453 Q145 486 114.5 541.5 Q84 597 84 660 Q84 760 155 831.5 Q226 903 327 903 Q418 903 486 843 Q751 1013 1124 1020 L1268 1476 Q1278 1505 1308 1505 Q1332 1505 1692 1415 Q1716 1470 1766 1503 Q1816 1536 1876 1536 Q1958 1536 2017 1477 Q2076 1418 2076 1335 Q2076 1252 2017 1193.5 Q1958 1135 1876 1135 Q1793 1135 1734.5 1193.5 Q1676 1252 1675 1334 L1336 1414 L1211 1019 Q1560 1004 1814 840 Q1885 903 1977 903 Q2078 903 2149 831.5 Q2220 760 2220 660 z" pathLength="0" fill="White" transform="translate(-2.285714, 9.536743E-07) scale(0.008928572, -0.008928572) translate(0, -1536)" />
</svg>