<!DOCTYPE svg PUBLIC "-//W3C//DTD SVG 1.1//EN" "http://www.w3.org/Graphics/SVG/1.1/DTD/svg11.dtd">
<svg xmlns="http://www.w3.org/2000/svg" xmlns:xlink="http://www.w3.org/1999/xlink" version="1.1" width="16" height="16" overflow="auto" preserveAspectRatio="none" baseProfile="tiny" space="preserve">
  <path d="M831 572 Q831 516 790.5 476 Q750 436 694 436 Q637 436 596 476 Q555 516 555 572 Q555 629 596.5 670 Q638 711 694 711 Q750 711 790.5 670 Q831 629 831 572 z M1292 711 Q1348 711 1388.5 670 Q1429 629 1429 572 Q1429 516 1388.5 476 Q1348 436 1292 436 Q1235 436 1194 476 Q1153 516 1153 572 Q1153 629 1194.5 670 Q1236 711 1292 711 z M1984 722 Q1984 660 1953 608 Q1922 556 1870 526 Q1875 493 1875 465 Q1875 344 1806.5 234.5 Q1738 125 1609 41 Q1484 -41 1323.5 -84.5 Q1163 -128 988 -128 Q812 -128 651.5 -84.5 Q491 -41 367 41 Q238 125 169.5 234 Q101 343 101 465 Q101 494 106 531 Q58 562 29 612.5 Q0 663 0 722 Q0 816 66 882 Q132 948 226 948 Q309 948 374 893 Q622 1051 966 1057 L1100 1480 Q1104 1494 1117.5 1501.5 Q1131 1509 1146 1506 L1493 1424 Q1515 1474 1561.5 1505 Q1608 1536 1664 1536 Q1741 1536 1795.5 1481.5 Q1850 1427 1850 1350 Q1850 1273 1795.5 1218 Q1741 1163 1664 1163 Q1588 1163 1533.5 1217 Q1479 1271 1478 1348 L1163 1422 L1047 1056 Q1374 1042 1607 890 Q1671 948 1758 948 Q1852 948 1918 882 Q1984 816 1984 722 z M1664 1459 Q1619 1459 1587 1427 Q1555 1395 1555 1350 Q1555 1305 1587 1273 Q1619 1241 1664 1241 Q1709 1241 1741 1273 Q1773 1305 1773 1350 Q1773 1395 1741 1427 Q1709 1459 1664 1459 z M77 722 Q77 655 128 611 Q177 742 308 846 Q272 871 226 871 Q164 871 120.5 827.5 Q77 784 77 722 z M1567 105 Q1679 178 1738.5 271 Q1798 364 1798 465 Q1798 566 1738.5 658.5 Q1679 751 1567 824 Q1451 899 1301.5 939.5 Q1152 980 988 980 Q824 980 674.5 939.5 Q525 899 409 824 Q297 751 237.5 658.5 Q178 566 178 465 Q178 364 237.5 271 Q297 178 409 105 Q525 30 674.5 -10.5 Q824 -51 988 -51 Q1152 -51 1301.5 -10.5 Q1451 30 1567 105 z M1850 605 Q1907 651 1907 722 Q1907 784 1863.5 827.5 Q1820 871 1758 871 Q1709 871 1672 843 Q1803 738 1850 605 z M1258 237 Q1269 248 1285 248 Q1301 248 1312 237 Q1323 226 1323 209.5 Q1323 193 1312 182 Q1213 83 993 83 L991 83 Q771 83 672 182 Q661 193 661 209.5 Q661 226 672 237 Q683 248 699 248 Q715 248 726 237 Q803 160 991 160 L993 160 Q1181 160 1258 237 z" pathLength="0" fill="White" transform="translate(-0.8571424, 0.5714297) scale(0.008928572, -0.008928572) translate(0, -1536)" />
</svg>