<!DOCTYPE svg PUBLIC "-//W3C//DTD SVG 1.1//EN" "http://www.w3.org/Graphics/SVG/1.1/DTD/svg11.dtd">
<svg xmlns="http://www.w3.org/2000/svg" xmlns:xlink="http://www.w3.org/1999/xlink" version="1.1" width="16" height="16" overflow="auto" preserveAspectRatio="none" baseProfile="tiny" space="preserve">
  <path d="M0 736 L0 800 Q0 840 28 868 Q56 896 96 896 L416 896 Q456 896 484 868 Q512 840 512 800 L512 736 Q512 696 484 668 Q456 640 416 640 L96 640 Q56 640 28 668 Q0 696 0 736 z M128 -96 L128 576 L384 576 L384 -96 Q384 -110 375 -119 Q366 -128 352 -128 L160 -128 Q146 -128 137 -119 Q128 -110 128 -96 z M128 960 L128 1376 Q128 1390 137 1399 Q146 1408 160 1408 L352 1408 Q366 1408 375 1399 Q384 1390 384 1376 L384 960 L128 960 z M512 224 L512 288 Q512 328 540 356 Q568 384 608 384 L928 384 Q968 384 996 356 Q1024 328 1024 288 L1024 224 Q1024 184 996 156 Q968 128 928 128 L608 128 Q568 128 540 156 Q512 184 512 224 z M640 64 L896 64 L896 -96 Q896 -110 887 -119 Q878 -128 864 -128 L672 -128 Q658 -128 649 -119 Q640 -110 640 -96 L640 64 z M640 448 L640 1376 Q640 1390 649 1399 Q658 1408 672 1408 L864 1408 Q878 1408 887 1399 Q896 1390 896 1376 L896 448 L640 448 z M1024 992 L1024 1056 Q1024 1096 1052 1124 Q1080 1152 1120 1152 L1440 1152 Q1480 1152 1508 1124 Q1536 1096 1536 1056 L1536 992 Q1536 952 1508 924 Q1480 896 1440 896 L1120 896 Q1080 896 1052 924 Q1024 952 1024 992 z M1152 -96 L1152 832 L1408 832 L1408 -96 Q1408 -110 1399 -119 Q1390 -128 1376 -128 L1184 -128 Q1170 -128 1161 -119 Q1152 -110 1152 -96 z M1152 1216 L1152 1376 Q1152 1390 1161 1399 Q1170 1408 1184 1408 L1376 1408 Q1390 1408 1399 1399 Q1408 1390 1408 1376 L1408 1216 L1152 1216 z" pathLength="0" fill="White" transform="translate(1.142857, 1.311302E-06) scale(0.008928572, -0.008928572) translate(0, -1536)" />
</svg>