<!DOCTYPE svg PUBLIC "-//W3C//DTD SVG 1.1//EN" "http://www.w3.org/Graphics/SVG/1.1/DTD/svg11.dtd">
<svg xmlns="http://www.w3.org/2000/svg" xmlns:xlink="http://www.w3.org/1999/xlink" version="1.1" width="16" height="16" overflow="auto" preserveAspectRatio="none" baseProfile="tiny" space="preserve">
  <path d="M496 192 Q496 132 453.5 90 Q411 48 352 48 Q292 48 250 90 Q208 132 208 192 Q208 252 250 294 Q292 336 352 336 Q411 336 453.5 294 Q496 252 496 192 z M928 0 Q928 -53 890.5 -90.5 Q853 -128 800 -128 Q747 -128 709.5 -90.5 Q672 -53 672 0 Q672 53 709.5 90.5 Q747 128 800 128 Q853 128 890.5 90.5 Q928 53 928 0 z M320 640 Q320 574 273 527 Q226 480 160 480 Q94 480 47 527 Q0 574 0 640 Q0 706 47 753 Q94 800 160 800 Q226 800 273 753 Q320 706 320 640 z M1360 192 Q1360 146 1327 113 Q1294 80 1248 80 Q1202 80 1169 113 Q1136 146 1136 192 Q1136 238 1169 271 Q1202 304 1248 304 Q1294 304 1327 271 Q1360 238 1360 192 z M528 1088 Q528 1015 476.5 963.5 Q425 912 352 912 Q279 912 227.5 963.5 Q176 1015 176 1088 Q176 1161 227.5 1212.5 Q279 1264 352 1264 Q425 1264 476.5 1212.5 Q528 1161 528 1088 z M992 1280 Q992 1200 936 1144 Q880 1088 800 1088 Q720 1088 664 1144 Q608 1200 608 1280 Q608 1360 664 1416 Q720 1472 800 1472 Q880 1472 936 1416 Q992 1360 992 1280 z M1536 640 Q1536 600 1508 572 Q1480 544 1440 544 Q1400 544 1372 572 Q1344 600 1344 640 Q1344 680 1372 708 Q1400 736 1440 736 Q1480 736 1508 708 Q1536 680 1536 640 z M1328 1088 Q1328 1055 1304.5 1031.5 Q1281 1008 1248 1008 Q1215 1008 1191.5 1031.5 Q1168 1055 1168 1088 Q1168 1121 1191.5 1144.5 Q1215 1168 1248 1168 Q1281 1168 1304.5 1144.5 Q1328 1121 1328 1088 z" pathLength="0" fill="White" transform="translate(1.142857, 0.2857153) scale(0.008928572, -0.008928572) translate(0, -1536)" />
</svg>