<!DOCTYPE svg PUBLIC "-//W3C//DTD SVG 1.1//EN" "http://www.w3.org/Graphics/SVG/1.1/DTD/svg11.dtd">
<svg xmlns="http://www.w3.org/2000/svg" xmlns:xlink="http://www.w3.org/1999/xlink" version="1.1" width="16" height="16" overflow="auto" preserveAspectRatio="none" baseProfile="tiny" space="preserve">
  <path d="M0 764 Q0 850 61 910.5 Q122 971 207 971 Q280 971 337 925 Q394 879 410 808 L1193 493 Q1242 522 1299 522 Q1313 522 1320 521 L1493 769 Q1494 883 1575 963.5 Q1656 1044 1770 1044 Q1885 1044 1966.5 963 Q2048 882 2048 767 Q2048 652 1966.5 570.5 Q1885 489 1770 489 L1505 295 Q1497 215 1437.5 161.5 Q1378 108 1299 108 Q1226 108 1169 154 Q1112 200 1096 271 L313 586 Q262 556 207 556 Q122 556 61 617 Q0 678 0 764 z M55 764 Q55 700 99.5 655.5 Q144 611 207 611 Q218 611 240 615 L176 641 Q143 655 123.5 685.5 Q104 716 104 752 Q104 802 139.5 837.5 Q175 873 225 873 Q245 873 266 865 L266 866 L342 835 Q322 872 285.5 894 Q249 916 207 916 Q144 916 99.5 871.5 Q55 827 55 764 z M1164 244 Q1183 207 1219.5 185 Q1256 163 1299 163 Q1362 163 1406.5 207.5 Q1451 252 1451 315 Q1451 378 1406.5 423 Q1362 468 1299 468 Q1286 468 1266 464 Q1268 463 1286 456 Q1304 449 1307.5 447.5 Q1311 446 1326 439 Q1341 432 1345 429 Q1349 426 1361 418 Q1373 410 1376.5 404.5 Q1380 399 1387.5 390 Q1395 381 1397.5 372 Q1400 363 1402.5 351 Q1405 339 1405 326 Q1405 276 1369.5 240.5 Q1334 205 1284 205 Q1270 205 1252.5 209.5 Q1235 214 1223.5 218.5 Q1212 223 1192 232 Q1172 241 1164 244 z M1584 767 Q1584 690 1638.5 635.5 Q1693 581 1770 581 Q1847 581 1902 635.5 Q1957 690 1957 767 Q1957 844 1902 898.5 Q1847 953 1770 953 Q1694 953 1639 898.5 Q1584 844 1584 767 z M1623 767 Q1623 829 1666.5 872.5 Q1710 916 1771 916 Q1832 916 1876 872 Q1920 828 1920 767 Q1920 706 1876.5 662.5 Q1833 619 1771 619 Q1710 619 1666.5 662.5 Q1623 706 1623 767 z" pathLength="0" fill="White" transform="translate(-1.142858, -0.5714283) scale(0.008928572, -0.008928572) translate(0, -1536)" />
</svg>