<!DOCTYPE svg PUBLIC "-//W3C//DTD SVG 1.1//EN" "http://www.w3.org/Graphics/SVG/1.1/DTD/svg11.dtd">
<svg xmlns="http://www.w3.org/2000/svg" xmlns:xlink="http://www.w3.org/1999/xlink" version="1.1" width="16" height="16" overflow="auto" preserveAspectRatio="none" baseProfile="tiny" space="preserve">
  <path d="M0 160 L0 1120 Q0 1239 84.5 1323.5 Q169 1408 288 1408 L1248 1408 Q1367 1408 1451.5 1323.5 Q1536 1239 1536 1120 L1536 160 Q1536 41 1451.5 -43.5 Q1367 -128 1248 -128 L288 -128 Q169 -128 84.5 -43.5 Q0 41 0 160 z M128 693 Q128 640 166 602 Q204 564 258 564 Q294 564 324 582 L813 385 Q823 341 858.5 312 Q894 283 940 283 Q990 283 1026.5 317 Q1063 351 1068 400 L1235 522 Q1306 522 1357 572.5 Q1408 623 1408 695 Q1408 767 1357 818 Q1306 869 1235 869 Q1163 869 1112.5 818.5 Q1062 768 1061 697 L953 542 Q951 542 946.5 542.5 Q942 543 940 543 Q905 543 873 524 L384 721 Q374 765 338.5 794 Q303 823 258 823 Q204 823 166 785 Q128 747 128 693 z M162 693 Q162 733 190 761 Q218 789 258 789 Q285 789 307.5 775 Q330 761 342 738 L294 757 Q265 768 237.5 755 Q210 742 199 714 Q187 685 198.5 657 Q210 629 238 617 L238 616 L278 600 Q264 598 258 598 Q218 598 190 625.5 Q162 653 162 693 z M855 369 Q860 367 902 350 Q931 338 960 350.5 Q989 363 1001 392 Q1012 421 1000 449.5 Q988 478 959 490 L919 506 Q933 508 940 508 Q979 508 1007 480.5 Q1035 453 1035 413 Q1035 373 1007 345.5 Q979 318 940 318 Q881 318 855 369 z M1118 695 Q1118 743 1152 777 Q1186 811 1235 811 Q1283 811 1317 777 Q1351 743 1351 695 Q1351 647 1317 613 Q1283 579 1235 579 Q1186 579 1152 613 Q1118 647 1118 695 z M1142 696 Q1142 657 1169.5 630 Q1197 603 1235 603 Q1273 603 1300.5 630 Q1328 657 1328 696 Q1328 734 1300.5 761.5 Q1273 789 1235 789 Q1197 789 1169.5 761.5 Q1142 734 1142 696 z" pathLength="0" fill="White" transform="translate(1.142857, 1.311302E-06) scale(0.008928572, -0.008928572) translate(0, -1536)" />
</svg>