<!DOCTYPE svg PUBLIC "-//W3C//DTD SVG 1.1//EN" "http://www.w3.org/Graphics/SVG/1.1/DTD/svg11.dtd">
<svg xmlns="http://www.w3.org/2000/svg" xmlns:xlink="http://www.w3.org/1999/xlink" version="1.1" width="16" height="16" overflow="auto" preserveAspectRatio="none" baseProfile="tiny" space="preserve">
  <path d="M81 1407 L135 1380 Q155 1375 346 1375 L476 1375 L495 1378 L610 1379 L825 1378 L1118 1378 L1152 1376 Q1166 1375 1180 1383 Q1194 1391 1201 1399 L1208 1407 L1250 1408 Q1265 1408 1278 1407 L1278 1302.5 Q1278 1302.5 1279 1171 L1280 1071 L1279 1013 Q1279 981 1275 962 Q1236 947 1207 944 Q1182 987 1153 1072 Q1145 1096 1137.5 1134.5 Q1130 1173 1126 1200 Q1122 1227 1120 1229 Q1107 1244 1093 1248 Q1086 1250 1050.5 1250 Q1015 1250 947 1249 Q879 1248 836 1248 Q802 1248 769 1243 Q759 1146 761 1107 L762 955 L762 623 L765 264 L764 117 Q763 71 775 32 Q824 7 864 0 Q866 0 882 -5 Q898 -10 926 -18 Q954 -26 969 -30 Q999 -38 1019 -48 Q1024 -93 1024 -98 Q1024 -108 1021 -127 Q1007 -128 987 -128 Q877 -128 800 -118 Q728 -110 562 -110 Q474 -110 329 -124 Q281 -128 259 -128 Q257 -106 257 -102 L256 -76 L256 -67 Q277 -34 335 -18 Q474 20 494 32 Q503 53 506 88 Q514 280 512 521 L507 949 Q506 1011 506.5 1067.5 Q507 1124 507 1170 Q507 1216 505 1227 Q503 1238 499 1242 Q493 1247 485 1248 Q447 1254 337 1254 Q294 1254 237 1240.5 Q180 1227 164 1216 Q151 1207 142 1183 Q133 1159 120 1108 Q107 1057 96 1024 Q90 1005 76.5 992 Q63 979 56 979 Q12 1006 0 1023 L0 1320 L0 1406 z M1744 128 Q1777 128 1786 109.5 Q1795 91 1775 65 L1649 -97 Q1629 -123 1600 -123 Q1571 -123 1551 -97 L1425 65 Q1405 91 1414 109.5 Q1423 128 1456 128 L1536 128 L1536 1152 L1456 1152 Q1423 1152 1414 1170.5 Q1405 1189 1425 1215 L1551 1377 Q1571 1403 1600 1403 Q1629 1403 1649 1377 L1775 1215 Q1795 1189 1786 1170.5 Q1777 1152 1744 1152 L1664 1152 L1664 128 L1744 128 z" pathLength="0" fill="White" transform="translate(0, 1.311302E-06) scale(0.008928572, -0.008928572) translate(0, -1536)" />
</svg>