<!DOCTYPE svg PUBLIC "-//W3C//DTD SVG 1.1//EN" "http://www.w3.org/Graphics/SVG/1.1/DTD/svg11.dtd">
<svg xmlns="http://www.w3.org/2000/svg" xmlns:xlink="http://www.w3.org/1999/xlink" version="1.1" width="16" height="16" overflow="auto" preserveAspectRatio="none" baseProfile="tiny" space="preserve">
  <path d="M81 1407 L135 1380 Q155 1375 346 1375 L476 1375 L495 1378 L610 1379 L1056 1378 L1374 1378 L1408 1376 Q1422 1375 1436 1383 Q1450 1391 1457 1399 L1464 1407 L1506 1408 Q1521 1408 1534 1407 L1534 1302.5 Q1534 1302.5 1535 1171 L1536 1071 L1535 1013 Q1535 981 1531 962 Q1492 947 1463 944 Q1438 987 1409 1072 Q1401 1096 1393.5 1134.5 Q1386 1173 1382 1200 Q1378 1227 1376 1229 Q1363 1244 1349 1248 Q1342 1250 1290.5 1250 Q1239 1250 1152 1249 Q1065 1248 1024 1248 Q930 1248 897 1243 Q887 1146 889 1107 L890 955 L890 1007 L893 648 L892 501 Q891 455 903 416 Q952 391 992 384 Q994 384 1010 379 Q1026 374 1054 366 Q1082 358 1097 354 Q1127 346 1147 336 Q1152 291 1152 286 Q1152 276 1149 257 Q1135 256 1115 256 Q1005 256 928 266 Q856 274 690 274 Q608 274 457 261 Q412 256 387 256 Q385 278 385 282 L384 308 L384 317 Q405 350 463 366 Q602 404 622 416 Q631 437 634 472 Q640 609 640 905 L635 949 Q635 1214 633 1227 Q631 1238 627 1242 Q621 1247 613 1248 Q575 1254 465 1254 Q415 1254 296.5 1240 Q178 1226 164 1216 Q151 1207 142 1183 Q133 1159 120 1108 Q107 1057 96 1024 Q90 1005 76.5 992 Q63 979 56 979 Q12 1006 0 1023 L0 1320 L0 1406 z M1505 113 Q1531 93 1531 64 Q1531 35 1505 15 L1343 -111 Q1317 -131 1298.5 -122 Q1280 -113 1280 -80 L1280 0 L256 0 L256 -80 Q256 -113 237.5 -122 Q219 -131 193 -111 L31 15 Q5 35 5 64 Q5 93 31 113 L193 239 Q219 259 237.5 250 Q256 241 256 208 L256 128 L1280 128 L1280 208 Q1280 241 1298.5 250 Q1317 259 1343 239 z" pathLength="0" fill="White" transform="translate(1.142857, 1.311302E-06) scale(0.008928572, -0.008928572) translate(0, -1536)" />
</svg>