<!DOCTYPE svg PUBLIC "-//W3C//DTD SVG 1.1//EN" "http://www.w3.org/Graphics/SVG/1.1/DTD/svg11.dtd">
<svg xmlns="http://www.w3.org/2000/svg" xmlns:xlink="http://www.w3.org/1999/xlink" version="1.1" width="16" height="16" overflow="auto" preserveAspectRatio="none" baseProfile="tiny" space="preserve">
  <path d="M0 160 L0 1120 Q0 1239 84.5 1323.5 Q169 1408 288 1408 L1248 1408 Q1367 1408 1451.5 1323.5 Q1536 1239 1536 1120 L1536 160 Q1536 41 1451.5 -43.5 Q1367 -128 1248 -128 L288 -128 Q169 -128 84.5 -43.5 Q0 41 0 160 z M413 744 L540 744 L540 340 Q540 262 557 219 Q574 177 616 141 Q659 104 720 84 Q782 64 860 64 Q927 64 989 78 Q1046 91 1123 127 L1123 308 Q1035 252 949 252 Q898 252 861 275 Q832 292 822 320 Q811 350 811 449 L811 744 L1085 744 L1085 925 L811 925 L811 1216 L647 1216 Q636 1126 607 1069 Q578 1012 529 970 Q481 930 413 907 L413 744 z" pathLength="0" fill="White" transform="translate(1.142857, 1.311302E-06) scale(0.008928572, -0.008928572) translate(0, -1536)" />
</svg>