<!DOCTYPE svg PUBLIC "-//W3C//DTD SVG 1.1//EN" "http://www.w3.org/Graphics/SVG/1.1/DTD/svg11.dtd">
<svg xmlns="http://www.w3.org/2000/svg" xmlns:xlink="http://www.w3.org/1999/xlink" version="1.1" width="16" height="16" overflow="auto" preserveAspectRatio="none" baseProfile="tiny" space="preserve">
  <path d="M78 779 L78 996 Q169 1026 233 1080 Q297 1135 336 1212 Q375 1290 390 1408 L609 1408 L609 1020 L973 1020 L973 779 L609 779 L609 385 Q609 249 623 213 Q636 176 675 153 Q725 122 792 122 Q909 122 1024 198 L1024 -44 Q922 -92 846 -109 Q769 -128 673 -128 Q568 -128 487 -101 Q409 -76 349 -26 Q291 25 270 79 Q248 133 248 240 L248 779 L78 779 z" pathLength="0" fill="White" transform="translate(3.080358, 1.311302E-06) scale(0.008928572, -0.008928572) translate(0, -1536)" />
</svg>