<!DOCTYPE svg PUBLIC "-//W3C//DTD SVG 1.1//EN" "http://www.w3.org/Graphics/SVG/1.1/DTD/svg11.dtd">
<svg xmlns="http://www.w3.org/2000/svg" xmlns:xlink="http://www.w3.org/1999/xlink" version="1.1" x="0" y="0" width="16" height="16" overflow="auto" preserveAspectRatio="xMidYMid" baseProfile="tiny" space="preserve">
  <path d="M1254 899 Q1270 984 1233 1031 Q1181 1096 1046 1076 Q1029 1073 1005 1063.5 Q981 1054 947.5 1033 Q914 1012 883 984.5 Q852 957 823.5 914.5 Q795 872 779 823 Q859 830 892.5 807 Q926 784 919 708 Q914 656 867 565 Q824 487 796 466 Q752 434 709 480 Q686 504 671.5 544.5 Q657 585 652.5 617.5 Q648 650 642.5 701.5 Q637 753 634 773 Q611 902 600 937 Q588 974 564.5 1006 Q541 1038 514 1046 Q457 1062 387 1021 Q333 989 250.5 915 Q168 841 128 813 L128 806 Q144 798 153.5 780 Q163 762 175 760 Q196 757 229.5 768.5 Q263 780 287.5 779 Q312 778 329 749 Q340 731 347.5 710.5 Q355 690 362.5 662.5 Q370 635 375 622 Q392 576 428 435 Q464 289 485 238 Q527 139 588 113 Q631 101 673 111.5 Q715 122 749 143 Q880 220 999 380 Q1103 519 1171.5 672.5 Q1240 826 1254 899 z M1536 1120 L1536 160 Q1536 41 1451.5 -43.5 Q1367 -128 1248 -128 L288 -128 Q169 -128 84.5 -43.5 Q0 41 0 160 L0 1120 Q0 1239 84.5 1323.5 Q169 1408 288 1408 L1248 1408 Q1367 1408 1451.5 1323.5 Q1536 1239 1536 1120 z" pathLength="0" fill="White" transform="translate(1.142857, 1.311302E-06) scale(0.008928572, -0.008928572) translate(0, -1536)" />
</svg>